<mxfile host="app.diagrams.net" modified="2023-10-02T12:11:14.498Z" agent="Mozilla/5.0 (Windows NT 10.0; Win64; x64; rv:109.0) Gecko/20100101 Firefox/119.0" etag="R1SeMDvBfHKthfHaNFVZ" version="22.0.0" type="github">
  <diagram name="Page-1" id="bveSkdtC7SAitf0JW1jE">
    <mxGraphModel dx="1984" dy="591" grid="1" gridSize="10" guides="1" tooltips="1" connect="1" arrows="1" fold="1" page="1" pageScale="1" pageWidth="850" pageHeight="1100" math="0" shadow="0">
      <root>
        <mxCell id="0" />
        <mxCell id="1" parent="0" />
        <mxCell id="S5NFw3YsdJB1uzVjy89p-3" value="" style="rounded=0;whiteSpace=wrap;html=1;" vertex="1" parent="1">
          <mxGeometry x="330" y="80" width="430" height="170" as="geometry" />
        </mxCell>
        <mxCell id="S5NFw3YsdJB1uzVjy89p-4" value="pengendara" style="rounded=0;whiteSpace=wrap;html=1;" vertex="1" parent="1">
          <mxGeometry x="495" y="20" width="100" height="40" as="geometry" />
        </mxCell>
        <mxCell id="S5NFw3YsdJB1uzVjy89p-5" value="Nama" style="rounded=0;whiteSpace=wrap;html=1;" vertex="1" parent="1">
          <mxGeometry x="330" y="80" width="100" height="40" as="geometry" />
        </mxCell>
        <mxCell id="S5NFw3YsdJB1uzVjy89p-6" value="Plat nomor" style="rounded=0;whiteSpace=wrap;html=1;" vertex="1" parent="1">
          <mxGeometry x="430" y="80" width="150" height="40" as="geometry" />
        </mxCell>
        <mxCell id="S5NFw3YsdJB1uzVjy89p-7" value="Pelanggaran" style="rounded=0;whiteSpace=wrap;html=1;" vertex="1" parent="1">
          <mxGeometry x="580" y="80" width="180" height="40" as="geometry" />
        </mxCell>
        <mxCell id="S5NFw3YsdJB1uzVjy89p-8" value="Sifa" style="rounded=0;whiteSpace=wrap;html=1;" vertex="1" parent="1">
          <mxGeometry x="330" y="120" width="100" height="30" as="geometry" />
        </mxCell>
        <mxCell id="S5NFw3YsdJB1uzVjy89p-9" value="D 123 AT" style="rounded=0;whiteSpace=wrap;html=1;" vertex="1" parent="1">
          <mxGeometry x="430" y="120" width="150" height="30" as="geometry" />
        </mxCell>
        <mxCell id="S5NFw3YsdJB1uzVjy89p-10" value="Tidak pake helm" style="rounded=0;whiteSpace=wrap;html=1;" vertex="1" parent="1">
          <mxGeometry x="580" y="120" width="180" height="30" as="geometry" />
        </mxCell>
        <mxCell id="S5NFw3YsdJB1uzVjy89p-11" value="" style="rounded=0;whiteSpace=wrap;html=1;" vertex="1" parent="1">
          <mxGeometry x="-330" y="80" width="570" height="170" as="geometry" />
        </mxCell>
        <mxCell id="S5NFw3YsdJB1uzVjy89p-12" value="pengendara" style="rounded=0;whiteSpace=wrap;html=1;" vertex="1" parent="1">
          <mxGeometry x="-165" y="20" width="100" height="40" as="geometry" />
        </mxCell>
        <mxCell id="S5NFw3YsdJB1uzVjy89p-13" value="Nama" style="rounded=0;whiteSpace=wrap;html=1;" vertex="1" parent="1">
          <mxGeometry x="-330" y="80" width="100" height="40" as="geometry" />
        </mxCell>
        <mxCell id="S5NFw3YsdJB1uzVjy89p-14" value="Plat nomor" style="rounded=0;whiteSpace=wrap;html=1;" vertex="1" parent="1">
          <mxGeometry x="-230" y="80" width="150" height="40" as="geometry" />
        </mxCell>
        <mxCell id="S5NFw3YsdJB1uzVjy89p-15" value="Pelanggaran" style="rounded=0;whiteSpace=wrap;html=1;" vertex="1" parent="1">
          <mxGeometry x="-80" y="80" width="180" height="40" as="geometry" />
        </mxCell>
        <mxCell id="S5NFw3YsdJB1uzVjy89p-16" value="Sifa" style="rounded=0;whiteSpace=wrap;html=1;" vertex="1" parent="1">
          <mxGeometry x="-330" y="120" width="100" height="30" as="geometry" />
        </mxCell>
        <mxCell id="S5NFw3YsdJB1uzVjy89p-17" value="D 123 AT" style="rounded=0;whiteSpace=wrap;html=1;" vertex="1" parent="1">
          <mxGeometry x="-230" y="120" width="150" height="30" as="geometry" />
        </mxCell>
        <mxCell id="S5NFw3YsdJB1uzVjy89p-18" value="P01 Tidak pake helm" style="rounded=0;whiteSpace=wrap;html=1;" vertex="1" parent="1">
          <mxGeometry x="-80" y="120" width="180" height="30" as="geometry" />
        </mxCell>
        <mxCell id="S5NFw3YsdJB1uzVjy89p-19" value="" style="rounded=0;whiteSpace=wrap;html=1;" vertex="1" parent="1">
          <mxGeometry x="790" y="80" width="430" height="170" as="geometry" />
        </mxCell>
        <mxCell id="S5NFw3YsdJB1uzVjy89p-20" value="pulisi" style="rounded=0;whiteSpace=wrap;html=1;" vertex="1" parent="1">
          <mxGeometry x="955" y="20" width="100" height="40" as="geometry" />
        </mxCell>
        <mxCell id="S5NFw3YsdJB1uzVjy89p-21" value="Nama" style="rounded=0;whiteSpace=wrap;html=1;" vertex="1" parent="1">
          <mxGeometry x="790" y="80" width="100" height="40" as="geometry" />
        </mxCell>
        <mxCell id="S5NFw3YsdJB1uzVjy89p-22" value="Plat nomor" style="rounded=0;whiteSpace=wrap;html=1;" vertex="1" parent="1">
          <mxGeometry x="890" y="80" width="150" height="40" as="geometry" />
        </mxCell>
        <mxCell id="S5NFw3YsdJB1uzVjy89p-23" value="Pelanggaran" style="rounded=0;whiteSpace=wrap;html=1;" vertex="1" parent="1">
          <mxGeometry x="1040" y="80" width="180" height="40" as="geometry" />
        </mxCell>
        <mxCell id="S5NFw3YsdJB1uzVjy89p-24" value="Sifa" style="rounded=0;whiteSpace=wrap;html=1;" vertex="1" parent="1">
          <mxGeometry x="790" y="120" width="100" height="30" as="geometry" />
        </mxCell>
        <mxCell id="S5NFw3YsdJB1uzVjy89p-25" value="D 123 AT" style="rounded=0;whiteSpace=wrap;html=1;" vertex="1" parent="1">
          <mxGeometry x="890" y="120" width="150" height="30" as="geometry" />
        </mxCell>
        <mxCell id="S5NFw3YsdJB1uzVjy89p-26" value="Tidak pake helm" style="rounded=0;whiteSpace=wrap;html=1;" vertex="1" parent="1">
          <mxGeometry x="1040" y="120" width="180" height="30" as="geometry" />
        </mxCell>
        <mxCell id="S5NFw3YsdJB1uzVjy89p-27" value="P01 Tidak pake helm" style="rounded=0;whiteSpace=wrap;html=1;" vertex="1" parent="1">
          <mxGeometry x="100" y="120" width="140" height="30" as="geometry" />
        </mxCell>
      </root>
    </mxGraphModel>
  </diagram>
</mxfile>
